#!OML:ASF F:\VICON\USERDATA\INSTALL\rory3\rory3.ASF
:FULLY-SPECIFIED
:DEGREES
402
root 0.480869 18.0565 37.5519 -5.136 -4.57116 -2.62058
lowerback 15.3949 1.09676 2.59741
upperback -0.566513 2.18499 2.70121
thorax -9.29245 0.995837 0.936826
lowerneck -11.6854 -0.605253 -2.47256
upperneck 33.9077 0.276534 -1.52202
head 13.3515 -0.393094 -0.123751
rclavicle -7.33407e-016 -1.74931e-014
rhumerus -31.8884 -11.1488 -73.8094
rradius 31.578
rwrist 1.44097
rhand -14.0294 10.4968
rfingers 7.12502
rthumb 12.1007 -19.1333
lclavicle -7.33407e-016 -1.74931e-014
lhumerus -42.8912 4.98247 86.3284
lradius 35.314
lwrist 4.55331
lhand -12.6746 50.2283
lfingers 7.12502
lthumb 13.4068 79.7769
rfemur 11.9362 5.66433 29.5189
rtibia 35.9666
rfoot -5.07049 -8.2604
rtoes 0.786652
lfemur -20.3791 -8.71403 -16.9549
ltibia 21.5383
lfoot 1.17955 5.92026
ltoes -14.1894
403
root 0.494896 18.0691 37.7314 -5.48348 -4.70335 -3.16747
lowerback 15.4804 0.997236 3.1859
upperback -0.31647 2.16812 2.87525
thorax -9.05367 0.967751 0.794765
lowerneck -12.0125 -0.600355 -2.44913
upperneck 34.0241 0.345732 -1.68098
head 13.4752 -0.384562 -0.182688
rclavicle -1.99654e-014 -4.77083e-015
rhumerus -32.0116 -11.7432 -73.7512
rradius 31.0111
rwrist 1.36068
rhand -14.2308 10.8485
rfingers 7.12502
rthumb 11.9065 -18.7929
lclavicle -1.99654e-014 -4.77083e-015
lhumerus -42.6775 5.43762 86.0514
lradius 35.0462
lwrist 4.46165
lhand -12.5505 50.5042
lfingers 7.12502
lthumb 13.5265 80.0449
rfemur 11.19 5.33021 29.8729
rtibia 38.2359
rfoot -2.54334 -8.06034
rtoes 2.98838
lfemur -19.5117 -7.41663 -16.7186
ltibia 21.8228
lfoot 0.990014 4.37877
ltoes -15.5064
404
root 0.50573 18.0894 37.918 -5.8883 -4.75604 -3.45221
lowerback 15.4602 0.910648 3.49399
upperback -0.120915 2.10715 2.97956
thorax -8.82248 0.930998 0.747388
lowerneck -11.8775 -0.605306 -2.31922
upperneck 33.9674 0.372788 -1.90719
head 13.4216 -0.385248 -0.290229
rclavicle 4.63727e-015 3.02153e-014
rhumerus -32.2095 -12.4065 -73.5803
rradius 30.3374
rwrist 1.64345
rhand -14.3214 11.2588
rfingers 7.12502
rthumb 11.8192 -18.3877
lclavicle 4.63727e-015 3.02153e-014
lhumerus -42.8089 5.95883 85.686
lradius 34.9331
lwrist 4.25482
lhand -12.5459 50.8058
lfingers 7.12502
lthumb 13.5309 80.3462
rfemur 10.4561 4.94699 29.9105
rtibia 40.5154
rfoot 0.314458 -7.99908
rtoes 4.82826
lfemur -18.5818 -6.41475 -16.674
ltibia 21.8842
lfoot 0.79033 2.9021
ltoes -12.9263
405
root 0.557674 18.108 38.0857 -5.47164 -3.70366 -1.61202
lowerback 14.7954 0.691748 2.23938
upperback -0.302388 1.51708 2.37521
thorax -8.65954 0.689977 0.945965
lowerneck -11.6486 -0.507055 -2.14523
upperneck 33.6625 0.511652 -2.07002
head 13.2391 -0.318176 -0.36086
rclavicle 3.86854e-015 -2.38542e-014
rhumerus -32.5738 -12.7924 -73.3874
rradius 29.9666
rwrist 1.72973
rhand -14.2155 11.3208
rfingers 7.12502
rthumb 11.9213 -18.3198
lclavicle 3.86854e-015 -2.38542e-014
lhumerus -42.9678 6.88962 85.1204
lradius 34.9097
lwrist 3.35877
lhand -12.193 50.7769
lfingers 7.12502
lthumb 13.871 80.2943
rfemur 8.66192 3.42747 26.8157
rtibia 42.9126
rfoot 3.17387 -6.92876
rtoes 6.03052
lfemur -18.392 -5.98053 -19.3458
ltibia 21.9871
lfoot 0.526574 1.15572
ltoes -11.8567
406
root 0.557228 18.133 38.2651 -5.88091 -4.05126 -1.3325
lowerback 15.0701 0.856804 1.79917
upperback -0.175318 1.6635 2.36254
thorax -8.68912 0.779303 1.14605
lowerneck -12.056 -0.612535 -2.3464
upperneck 33.9751 0.361245 -1.86716
head 13.4641 -0.38975 -0.272138
rclavicle 3.81201e-014 2.78299e-014
rhumerus -33.0477 -13.118 -73.2413
rradius 29.7579
rwrist 1.81948
rhand -13.9463 11.2693
rfingers 7.12502
rthumb 12.1809 -18.3561
lclavicle 3.81201e-014 2.78299e-014
lhumerus -42.6604 6.38278 85.2482
lradius 34.3211
lwrist 3.96715
lhand -12.2482 50.8973
lfingers 7.12502
lthumb 13.8178 80.4183
rfemur 7.65674 3.61144 26.3837
rtibia 45.4096
rfoot 5.95074 -6.77417
rtoes 7.70067
lfemur -17.3236 -5.45935 -19.7459
ltibia 21.8696
lfoot 0.461992 0.66983
ltoes -8.96761
407
root 0.580085 18.1499 38.4171 -5.89321 -4.00704 -0.620931
lowerback 15.2218 0.855468 1.28483
upperback -0.254891 1.55673 2.12746
thorax -8.86673 0.744013 1.20691
lowerneck -12.1436 -0.56299 -2.31568
upperneck 34.1241 0.4463 -1.90812
head 13.5491 -0.35693 -0.282968
rclavicle -8.76438e-015 8.74653e-015
rhumerus -33.5123 -13.394 -73.1881
rradius 29.5527
rwrist 1.84846
rhand -13.7691 11.2981
rfingers 7.12502
rthumb 12.3517 -18.317
lclavicle -8.76438e-015 8.74653e-015
lhumerus -42.7537 6.28702 85.1644
lradius 34.3342
lwrist 4.18391
lhand -12.1316 51.227
lfingers 7.12502
lthumb 13.9302 80.7404
rfemur 6.04196 3.31742 25.155
rtibia 48.0126
rfoot 8.5418 -6.36134
rtoes 9.27774
lfemur -16.6059 -5.24659 -20.7489
ltibia 21.633
lfoot 0.406646 0.305087
ltoes -8.58535
408
root 0.593759 18.1651 38.536 -5.65299 -3.913 -0.191883
lowerback 15.2221 0.817136 0.927311
upperback -0.163863 1.42524 1.9698
thorax -8.76971 0.692939 1.26954
lowerneck -10.8429 -0.828394 -3.42939
upperneck 32.8055 -0.0650481 -0.950655
head 12.7045 -0.5742 0.22586
rclavicle -6.23687e-015 1.19271e-014
rhumerus -33.4677 -13.7819 -73.3672
rradius 29.4578
rwrist 1.78911
rhand -13.616 11.3083
rfingers 7.12502
rthumb 12.4993 -18.2979
lclavicle -6.23687e-015 1.19271e-014
lhumerus -42.2106 6.39555 84.9953
lradius 34.2468
lwrist 4.17589
lhand -12.0923 51.4007
lfingers 7.12502
lthumb 13.9681 80.9114
rfemur 3.94758 3.15318 24.4155
rtibia 50.6192
rfoot 11.1528 -6.62737
rtoes 12.4489
lfemur -16.437 -5.26422 -21.3121
ltibia 21.4758
lfoot 0.488859 0.221933
ltoes -6.94634
409
root 0.589529 18.1862 38.7132 -6.25928 -4.41728 -0.366267
lowerback 16.2595 0.883161 0.892372
upperback -0.456207 1.54381 2.044
thorax -9.68514 0.75109 1.33234
lowerneck -10.3913 -0.687813 -3.34226
upperneck 33.0368 0.0782142 -0.889079
head 12.702 -0.495388 0.254341
rclavicle 3.11533e-015 1.11319e-014
rhumerus -34.7999 -13.325 -73.4454
rradius 29.3844
rwrist 1.334
rhand -13.9423 11.3705
rfingers 7.12502
rthumb 12.1847 -18.2547
lclavicle 3.11533e-015 1.11319e-014
lhumerus -43.0324 6.27395 84.663
lradius 34.2777
lwrist 4.36275
lhand -12.3244 51.0498
lfingers 7.12502
lthumb 13.7444 80.5758
rfemur 3.06393 3.6286 24.6962
rtibia 53.0556
rfoot 13.2455 -7.66291
rtoes 16.6424
lfemur -15.0109 -4.81478 -21.1724
ltibia 21.2593
lfoot 0.265872 0.19652
ltoes -5.13953
410
root 0.608987 18.2135 38.8826 -6.31986 -4.33935 0.621302
lowerback 15.5601 0.922528 0.119851
upperback -0.286366 1.40731 1.74404
thorax -9.10807 0.715122 1.48546
lowerneck -11.4297 -0.405656 -2.20271
upperneck 33.7081 0.54705 -1.73552
head 13.2084 -0.268311 -0.214695
rclavicle 6.22134e-015 3.97569e-015
rhumerus -34.9695 -13.2822 -73.5941
rradius 28.7899
rwrist 0.797471
rhand -14.4447 11.3893
rfingers 7.12502
rthumb 11.7003 -18.2639
lclavicle 6.22134e-015 3.97569e-015
lhumerus -42.9354 5.97811 84.6726
lradius 34.4023
lwrist 4.5862
lhand -12.463 50.7565
lfingers 7.12502
lthumb 13.6108 80.2915
rfemur 1.54719 3.42735 23.2337
rtibia 55.4997
rfoot 14.6173 -7.83422
rtoes 17.6862
lfemur -14.2152 -4.45025 -22.5105
ltibia 20.946
lfoot 0.220925 -0.21125
ltoes -4.22317
411
root 0.622181 18.2358 39.0492 -6.3202 -4.47844 1.32114
lowerback 15.3152 1.00765 -0.507653
upperback -0.320998 1.39224 1.60032
thorax -9.01787 0.733367 1.69256
lowerneck -10.9924 -0.40581 -2.18648
upperneck 33.4115 0.577289 -1.90954
head 12.9873 -0.269645 -0.27788
rclavicle 1.02157e-014 2.14687e-014
rhumerus -35.1893 -13.2535 -73.5922
rradius 28.2229
rwrist 0.735693
rhand -14.6621 11.3337
rfingers 7.12502
rthumb 11.4906 -18.3314
lclavicle 1.02157e-014 2.14687e-014
lhumerus -43.07 5.7516 84.741
lradius 34.5226
lwrist 4.64976
lhand -12.2249 50.8273
lfingers 7.12502
lthumb 13.8403 80.3468
rfemur -0.0100766 3.36398 22.1889
rtibia 57.8769
rfoot 14.8554 -7.81456
rtoes 16.4319
lfemur -13.3642 -3.63784 -23.5219
ltibia 20.7661
lfoot -0.0932192 -0.884258
ltoes -6.17116
412
root 0.622396 18.2617 39.2041 -6.47814 -4.88153 1.82655
lowerback 15.7252 1.1216 -1.19435
upperback -0.207069 1.40892 1.52289
thorax -9.14198 0.77052 1.99152
lowerneck -10.3966 -0.594724 -3.0365
upperneck 32.6768 0.287523 -1.37356
head 12.5511 -0.422973 0.0441032
rclavicle 3.63753e-015 -1.51076e-014
rhumerus -34.9907 -13.0593 -73.9352
rradius 28.0318
rwrist 0.861283
rhand -14.6016 10.9974
rfingers 7.12502
rthumb 11.549 -18.6644
lclavicle 3.63753e-015 -1.51076e-014
lhumerus -42.6829 5.7594 84.6563
lradius 34.5051
lwrist 4.68499
lhand -12.4027 50.7491
lfingers 7.12502
lthumb 13.6689 80.2802
rfemur -1.50283 3.55326 21.5854
rtibia 60.2635
rfoot 14.1975 -8.20763
rtoes 14.1586
lfemur -12.5661 -3.27134 -24.0901
ltibia 20.1163
lfoot 0.213282 -0.853126
ltoes -3.92464
413
root 0.637363 18.2672 39.3246 -6.41954 -4.88489 1.96566
lowerback 16.6379 1.08133 -1.20957
upperback -0.850867 1.35106 1.49479
thorax -10.3699 0.756401 1.97499
lowerneck -9.34258 -0.532579 -3.3326
upperneck 32.609 0.330072 -1.17294
head 12.3002 -0.409998 0.180523
rclavicle 1.36664e-016 -1.51076e-014
rhumerus -36.2699 -12.5895 -73.8457
rradius 28.0745
rwrist 0.922754
rhand -14.6386 10.8028
rfingers 7.12502
rthumb 11.5133 -18.861
lclavicle 1.36664e-016 -1.51076e-014
lhumerus -43.6177 5.31211 84.6944
lradius 34.7692
lwrist 4.80994
lhand -12.5393 50.7055
lfingers 7.12502
lthumb 13.5372 80.2455
rfemur -3.29854 3.30657 21.2872
rtibia 62.5416
rfoot 13.2061 -8.68789
rtoes 12.7021
lfemur -11.9902 -2.86071 -24.4411
ltibia 19.9659
lfoot -0.0821118 -1.15517
ltoes -5.01976
